<svg width="155" height="74" viewBox="0 0 155 74" fill="none" xmlns="http://www.w3.org/2000/svg">
<g filter="url(#filter0_d_582_137)">
<path fill-rule="evenodd" clip-rule="evenodd" d="M146.906 4.70863C148.402 4.70863 149.614 3.49598 149.614 2.00011V2H153L153 6.06284C151.504 6.06284 150.291 7.27549 150.291 8.77137C150.291 10.2672 151.504 11.4799 153 11.4799L153 14.1882C151.504 14.1882 150.291 15.4009 150.291 16.8967C150.291 18.3926 151.504 19.6053 153 19.6053V22.3139C151.504 22.3139 150.291 23.5265 150.291 25.0224C150.291 26.5183 151.504 27.7309 153 27.7309V30.4395C151.504 30.4395 150.291 31.6521 150.291 33.148C150.291 34.6439 151.504 35.8565 153 35.8565L153 38.5651C151.504 38.5651 150.291 39.7777 150.291 41.2736C150.291 42.7695 151.504 43.9821 153 43.9821L153 46.6905C151.504 46.6905 150.291 47.9031 150.291 49.399C150.291 50.8949 151.504 52.1075 153 52.1075V54.8161C151.504 54.8161 150.291 56.0288 150.291 57.5246C150.291 59.0205 151.504 60.2331 153 60.2331L153 62.9418C151.504 62.9418 150.291 64.1544 150.291 65.6503C150.291 67.1462 151.504 68.3588 153 68.3588L153 71.7444L149.614 71.7444C149.614 70.2485 148.402 69.0359 146.906 69.0359C145.41 69.0359 144.197 70.2485 144.197 71.7444H141.489C141.489 70.2485 140.276 69.0359 138.78 69.0359C137.284 69.0359 136.072 70.2485 136.072 71.7444H133.363C133.363 70.2485 132.15 69.0359 130.654 69.0359C129.159 69.0359 127.946 70.2485 127.946 71.7444H125.238C125.238 70.2485 124.025 69.0359 122.529 69.0359C121.033 69.0359 119.821 70.2485 119.821 71.7444H117.112C117.112 70.2485 115.899 69.0359 114.403 69.0359C112.908 69.0359 111.695 70.2485 111.695 71.7444H108.986C108.986 70.2485 107.774 69.0359 106.278 69.0359C104.782 69.0359 103.569 70.2485 103.569 71.7444H100.861C100.861 70.2485 99.6483 69.0359 98.1525 69.0359C96.6566 69.0359 95.444 70.2485 95.444 71.7444H92.7354C92.7354 70.2485 91.5227 69.0359 90.0268 69.0359C88.531 69.0359 87.3183 70.2485 87.3183 71.7444H84.6097C84.6097 70.2485 83.3971 69.0359 81.9012 69.0359C80.4053 69.0359 79.1927 70.2485 79.1927 71.7444H76.4841C76.4841 70.2485 75.2714 69.0359 73.7756 69.0359C72.2797 69.0359 71.067 70.2485 71.067 71.7444H68.3587C68.3587 70.2485 67.1461 69.0359 65.6502 69.0359C64.1544 69.0359 62.9417 70.2485 62.9417 71.7444H60.2328C60.2328 70.2485 59.0202 69.0359 57.5243 69.0359C56.0284 69.0359 54.8158 70.2485 54.8158 71.7444H52.1075C52.1075 70.2485 50.8948 69.0359 49.399 69.0359C47.9031 69.0359 46.6904 70.2485 46.6904 71.7444H43.9818C43.9818 70.2485 42.7692 69.0359 41.2733 69.0359C39.7774 69.0359 38.5648 70.2485 38.5648 71.7444H35.8565C35.8565 70.2485 34.6439 69.0359 33.148 69.0359C31.6521 69.0359 30.4395 70.2485 30.4395 71.7444H27.7309C27.7309 70.2485 26.5182 69.0359 25.0223 69.0359C23.5265 69.0359 22.3138 70.2485 22.3138 71.7444H19.6052C19.6052 70.2485 18.3926 69.0359 16.8967 69.0359C15.4008 69.0359 14.1882 70.2485 14.1882 71.7444L11.4797 71.7444C11.4797 70.2485 10.267 69.0359 8.77114 69.0359C7.27527 69.0359 6.06262 70.2485 6.06262 71.7444L2 71.7444V68.3588C3.49584 68.3588 4.70845 67.1461 4.70845 65.6503C4.70845 64.1544 3.49584 62.9418 2 62.9418V60.2331C3.49582 60.2331 4.7084 59.0205 4.7084 57.5246C4.7084 56.0288 3.49582 54.8162 2 54.8161V52.1075C3.49582 52.1074 4.7084 50.8948 4.7084 49.399C4.7084 47.9032 3.49582 46.6905 2 46.6905V43.9821C3.49584 43.9821 4.70845 42.7695 4.70845 41.2736C4.70845 39.7778 3.49584 38.5651 2 38.5651V35.8565C3.49582 35.8565 4.7084 34.6438 4.7084 33.148C4.7084 31.6522 3.49582 30.4396 2 30.4395V27.7309C3.49582 27.7308 4.7084 26.5182 4.7084 25.0224C4.7084 23.5265 3.49582 22.3139 2 22.3139V19.6053C3.49582 19.6052 4.7084 18.3926 4.7084 16.8967C4.7084 15.4009 3.49582 14.1883 2 14.1882V11.4799C3.49584 11.4798 4.70845 10.2672 4.70845 8.77137C4.70845 7.27552 3.49584 6.06289 2 6.06284V2H6.06262V2.00016C6.06262 3.49604 7.27527 4.70868 8.77114 4.70868C10.267 4.70868 11.4797 3.49604 11.4797 2.00016V2H14.1882V2.00011C14.1882 3.49598 15.4008 4.70863 16.8967 4.70863C18.3926 4.70863 19.6052 3.49598 19.6052 2.00011V2H22.3138V2.00011C22.3138 3.49598 23.5265 4.70863 25.0223 4.70863C26.5182 4.70863 27.7309 3.49598 27.7309 2.00011V2H30.4395V2.00011C30.4395 3.49598 31.6521 4.70863 33.148 4.70863C34.6439 4.70863 35.8565 3.49598 35.8565 2.00011V2H38.5648V2.00011C38.5648 3.49598 39.7774 4.70863 41.2733 4.70863C42.7692 4.70863 43.9818 3.49598 43.9818 2.00011V2H46.6904V2.00011C46.6904 3.49598 47.9031 4.70863 49.399 4.70863C50.8948 4.70863 52.1075 3.49598 52.1075 2.00011V2H54.8158V2.00011C54.8158 3.49598 56.0284 4.70863 57.5243 4.70863C59.0202 4.70863 60.2328 3.49598 60.2328 2.00011V2H62.9417V2.00011C62.9417 3.49598 64.1544 4.70863 65.6502 4.70863C67.1461 4.70863 68.3587 3.49598 68.3587 2.00011V2H71.067V2.00011C71.067 3.49598 72.2797 4.70863 73.7756 4.70863C75.2714 4.70863 76.4841 3.49598 76.4841 2.00011V2H79.1927V2.00011C79.1927 3.49598 80.4053 4.70863 81.9012 4.70863C83.3971 4.70863 84.6097 3.49598 84.6097 2.00011V2H87.3183V2.00011C87.3183 3.49598 88.531 4.70863 90.0268 4.70863C91.5227 4.70863 92.7354 3.49598 92.7354 2.00011V2H95.444V2.00011C95.444 3.49598 96.6566 4.70863 98.1525 4.70863C99.6483 4.70863 100.861 3.49598 100.861 2.00011V2H103.569V2.00011C103.569 3.49598 104.782 4.70863 106.278 4.70863C107.774 4.70863 108.986 3.49598 108.986 2.00011V2H111.695V2.00011C111.695 3.49598 112.908 4.70863 114.403 4.70863C115.899 4.70863 117.112 3.49598 117.112 2.00011V2H119.821V2.00011C119.821 3.49598 121.033 4.70863 122.529 4.70863C124.025 4.70863 125.238 3.49598 125.238 2.00011V2H127.946V2.00011C127.946 3.49598 129.159 4.70863 130.654 4.70863C132.15 4.70863 133.363 3.49598 133.363 2.00011V2H136.072V2.00011C136.072 3.49598 137.284 4.70863 138.78 4.70863C140.276 4.70863 141.489 3.49598 141.489 2.00011V2H144.197V2.00011C144.197 3.49598 145.41 4.70863 146.906 4.70863Z" fill="white"/>
<path d="M13.6477 35.1459V15.8731H17.3251L25.5032 29.4742H23.5547L31.5956 15.8731H35.2455L35.3004 35.1459H31.129L31.1016 22.2882H31.87L25.4483 33.1085H23.445L16.886 22.2882H17.8191V35.1459H13.6477Z" fill="#242424"/>
<path d="M43.3983 23.6373H52.6466V27.1064H43.3983V23.6373ZM43.7276 31.5667H54.1834V35.1459H39.3092V15.8731H53.8267V19.4524H43.7276V31.5667Z" fill="#242424"/>
<path d="M57.172 35.1459V15.8731H60.8493L69.0274 29.4742H67.0789L75.1198 15.8731H78.7697L78.8246 35.1459H74.6533L74.6258 22.2882H75.3942L68.9725 33.1085H66.9692L60.4102 22.2882H61.3433V35.1459H57.172Z" fill="#242424"/>
<path d="M92.1641 35.4763C90.6456 35.4763 89.2369 35.2285 87.9379 34.733C86.6572 34.2374 85.5412 33.5399 84.5898 32.6405C83.6567 31.7411 82.9249 30.6857 82.3944 29.4742C81.8821 28.2628 81.626 26.9412 81.626 25.5095C81.626 24.0778 81.8821 22.7563 82.3944 21.5448C82.9249 20.3334 83.6659 19.278 84.6173 18.3786C85.5686 17.4792 86.6846 16.7817 87.9653 16.2861C89.246 15.7905 90.6365 15.5427 92.1367 15.5427C93.6552 15.5427 95.0457 15.7905 96.308 16.2861C97.5887 16.7817 98.6956 17.4792 99.6287 18.3786C100.58 19.278 101.321 20.3334 101.852 21.5448C102.382 22.7379 102.647 24.0595 102.647 25.5095C102.647 26.9412 102.382 28.272 101.852 29.5018C101.321 30.7132 100.58 31.7686 99.6287 32.668C98.6956 33.549 97.5887 34.2374 96.308 34.733C95.0457 35.2285 93.6644 35.4763 92.1641 35.4763ZM92.1367 31.6768C92.9966 31.6768 93.7833 31.53 94.4968 31.2363C95.2286 30.9426 95.869 30.5205 96.4178 29.9698C96.9667 29.4192 97.3875 28.7676 97.6802 28.015C97.9912 27.2624 98.1467 26.4273 98.1467 25.5095C98.1467 24.5918 97.9912 23.7566 97.6802 23.0041C97.3875 22.2515 96.9667 21.5999 96.4178 21.0492C95.8873 20.4986 95.2561 20.0764 94.5242 19.7827C93.7924 19.4891 92.9966 19.3422 92.1367 19.3422C91.2768 19.3422 90.4809 19.4891 89.7491 19.7827C89.0356 20.0764 88.4044 20.4986 87.8556 21.0492C87.3067 21.5999 86.8767 22.2515 86.5657 23.0041C86.273 23.7566 86.1266 24.5918 86.1266 25.5095C86.1266 26.4089 86.273 27.2441 86.5657 28.015C86.8767 28.7676 87.2975 29.4192 87.8281 29.9698C88.377 30.5205 89.0173 30.9426 89.7491 31.2363C90.4809 31.53 91.2768 31.6768 92.1367 31.6768Z" fill="#242424"/>
<path d="M105.44 35.1459V15.8731H113.755C115.475 15.8731 116.957 16.1576 118.201 16.7266C119.445 17.2773 120.405 18.0757 121.082 19.122C121.759 20.1682 122.098 21.4163 122.098 22.8664C122.098 24.2981 121.759 25.5371 121.082 26.5833C120.405 27.6112 119.445 28.4005 118.201 28.9511C116.957 29.5018 115.475 29.7771 113.755 29.7771H107.91L109.886 27.8223V35.1459H105.44ZM117.652 35.1459L112.849 28.1527H117.597L122.455 35.1459H117.652ZM109.886 28.3179L107.91 26.2254H113.508C114.88 26.2254 115.905 25.9317 116.582 25.3443C117.259 24.7386 117.597 23.9126 117.597 22.8664C117.597 21.8018 117.259 20.9758 116.582 20.3885C115.905 19.8011 114.88 19.5074 113.508 19.5074H107.91L109.886 17.3874V28.3179Z" fill="#242424"/>
<path d="M129.578 35.1459V27.2716L130.594 29.9698L122.141 15.8731H126.862L133.338 26.6934H130.621L137.125 15.8731H141.489L133.036 29.9698L134.024 27.2716V35.1459H129.578Z" fill="#242424"/>
<path d="M17.627 58.5487V42.9101H11.4797V39.2758H28.2201V42.9101H22.0728V58.5487H17.627Z" fill="#242424"/>
<path d="M26.5737 58.5487L35.136 39.2758H39.5269L48.1166 58.5487H43.4512L36.4258 41.5335H38.1821L31.1293 58.5487H26.5737ZM30.8548 54.4188L32.0349 51.0323H41.9144L43.1219 54.4188H30.8548Z" fill="#242424"/>
<path d="M49.5608 58.5487V39.2758H54.0066V58.5487H49.5608Z" fill="#242424"/>
<path d="M58.0167 58.5487V39.2758H62.4625V54.9144H72.095V58.5487H58.0167Z" fill="#242424"/>
<path d="M80.2617 58.879C78.7249 58.879 77.2521 58.6771 75.8434 58.2733C74.4346 57.8512 73.3003 57.3097 72.4404 56.6489L73.9498 53.2899C74.7731 53.8773 75.7428 54.3637 76.8588 54.7492C77.9931 55.1163 79.1366 55.2998 80.2892 55.2998C81.1674 55.2998 81.8717 55.2172 82.4023 55.052C82.9512 54.8685 83.3537 54.6207 83.6098 54.3086C83.8659 53.9966 83.994 53.6387 83.994 53.2349C83.994 52.7209 83.7928 52.3171 83.3903 52.0234C82.9878 51.7114 82.4572 51.4636 81.7985 51.28C81.1399 51.0781 80.4081 50.8946 79.6031 50.7294C78.8164 50.5458 78.0205 50.3256 77.2155 50.0686C76.4288 49.8116 75.7062 49.4812 75.0475 49.0774C74.3889 48.6736 73.8492 48.1413 73.4284 47.4805C73.0259 46.8198 72.8246 45.9754 72.8246 44.9475C72.8246 43.8462 73.1174 42.8459 73.7028 41.9465C74.3066 41.0287 75.203 40.3037 76.3922 39.7714C77.5997 39.2208 79.1091 38.9454 80.9204 38.9454C82.1279 38.9454 83.3171 39.0923 84.488 39.386C85.6589 39.6613 86.6926 40.0835 87.5891 40.6525L86.2169 44.039C85.3204 43.525 84.4239 43.1488 83.5275 42.9101C82.631 42.6532 81.7528 42.5247 80.8929 42.5247C80.033 42.5247 79.3287 42.6256 78.7798 42.8275C78.2309 43.0294 77.8376 43.2956 77.5997 43.626C77.3619 43.938 77.243 44.3051 77.243 44.7273C77.243 45.2229 77.4442 45.6267 77.8467 45.9387C78.2492 46.2324 78.7798 46.471 79.4384 46.6546C80.0971 46.8381 80.8197 47.0217 81.6064 47.2052C82.4114 47.3888 83.2073 47.5999 83.994 47.8385C84.799 48.0771 85.5308 48.3983 86.1895 48.8021C86.8481 49.2059 87.3787 49.7382 87.7812 50.399C88.202 51.0598 88.4124 51.8949 88.4124 52.9045C88.4124 53.9874 88.1105 54.9786 87.5067 55.878C86.903 56.7774 85.9974 57.5024 84.7899 58.0531C83.6007 58.6037 82.0913 58.879 80.2617 58.879Z" fill="#242424"/>
</g>
<defs>
<filter id="filter0_d_582_137" x="0.64574" y="0.64574" width="153.709" height="72.4529" filterUnits="userSpaceOnUse" color-interpolation-filters="sRGB">
<feFlood flood-opacity="0" result="BackgroundImageFix"/>
<feColorMatrix in="SourceAlpha" type="matrix" values="0 0 0 0 0 0 0 0 0 0 0 0 0 0 0 0 0 0 127 0" result="hardAlpha"/>
<feOffset/>
<feGaussianBlur stdDeviation="0.67713"/>
<feComposite in2="hardAlpha" operator="out"/>
<feColorMatrix type="matrix" values="0 0 0 0 0 0 0 0 0 0 0 0 0 0 0 0 0 0 0.25 0"/>
<feBlend mode="normal" in2="BackgroundImageFix" result="effect1_dropShadow_582_137"/>
<feBlend mode="normal" in="SourceGraphic" in2="effect1_dropShadow_582_137" result="shape"/>
</filter>
</defs>
</svg>
